<svg xmlns="http://www.w3.org/2000/svg" width="68.611" height="78.902" viewBox="0 0 68.611 78.902">
  <g id="组_15660" data-name="组 15660" transform="translate(-461 -3440.164)">
    <path id="路径_36994" data-name="路径 36994" d="M618,192.6a34.276,34.276,0,0,1,30.875-34.134v-3.6h-5.146a3.43,3.43,0,1,1,0-6.861h17.153a3.43,3.43,0,1,1,0,6.861h-5.146v3.6a33.915,33.915,0,0,1,18.182,7.547l3.259-3.259a3.4,3.4,0,0,1,4.8,4.8l-3.259,3.259a33.928,33.928,0,0,1,7.89,21.784,34.305,34.305,0,0,1-68.611,0Zm34.305-27.444A27.444,27.444,0,1,0,679.749,192.6a27.525,27.525,0,0,0-27.444-27.444Zm0,0" transform="translate(-157 3292.164)"/>
    <path id="路径_36995" data-name="路径 36995" d="M929,435.916a3.316,3.316,0,0,0-.519,4.775,3.316,3.316,0,0,0,4.774.519l15.126-12.157a3.4,3.4,0,1,0-4.255-5.294Zm0,0" transform="translate(-435.57 3044.824)" fill="#c71628"/>
  </g>
</svg>
