<svg xmlns="http://www.w3.org/2000/svg" xmlns:xlink="http://www.w3.org/1999/xlink" width="85.355" height="75.935" viewBox="0 0 85.355 75.935">
  <defs>
    <clipPath id="clip-path">
      <rect id="SVGID" width="85.355" height="75.935" fill="none"/>
    </clipPath>
  </defs>
  <g id="组_15673" data-name="组 15673" transform="translate(-500 -3294)">
    <g id="组_15672" data-name="组 15672" transform="translate(500 3294)">
      <rect id="矩形_4434" data-name="矩形 4434" width="21.387" height="18.883" transform="translate(31.728 2.681)" fill="#c71628"/>
      <g id="组_15671" data-name="组 15671" transform="translate(0 0)">
        <g id="组_15670" data-name="组 15670" clip-path="url(#clip-path)">
          <path id="路径_37003" data-name="路径 37003" d="M-1204.594,138.651H-1224.3a2.342,2.342,0,0,1-1.662-.688,2.343,2.343,0,0,1-.684-1.664V116.535a2.343,2.343,0,0,1,2.346-2.352h19.71a2.343,2.343,0,0,1,2.346,2.352v19.718a2.38,2.38,0,0,1-2.346,2.4Zm-17.362-4.747h14.973V118.89h-14.973Zm17.361,56.119H-1224.3a2.343,2.343,0,0,1-1.662-.688,2.342,2.342,0,0,1-.684-1.664V167.908a2.343,2.343,0,0,1,2.346-2.352h19.71a2.343,2.343,0,0,1,2.346,2.352v19.763a2.37,2.37,0,0,1-2.346,2.352Zm-17.362-4.748h14.973V170.26h-14.972v15.015Zm-13.011,4.748h-19.708a2.344,2.344,0,0,1-1.662-.688,2.342,2.342,0,0,1-.684-1.664V167.908a2.343,2.343,0,0,1,2.346-2.352h19.71a2.343,2.343,0,0,1,2.346,2.352v19.763a2.315,2.315,0,0,1-2.346,2.352Zm-17.319-4.748h14.973V170.26h-14.973Zm78.237,4.748h-19.71a2.343,2.343,0,0,1-1.662-.688,2.34,2.34,0,0,1-.684-1.664V167.908a2.342,2.342,0,0,1,2.346-2.352h19.709a2.343,2.343,0,0,1,2.346,2.352v19.763a2.37,2.37,0,0,1-2.346,2.352Zm-17.363-4.748h14.974V170.26h-14.973v15.015Zm0,0" transform="translate(1257.011 -114.183)"/>
        </g>
      </g>
      <path id="路径_37004" data-name="路径 37004" d="M-1088.48,515.834a2.308,2.308,0,0,1-2.342-2.286V500.493h-56.105v13.057a2.308,2.308,0,0,1-2.342,2.286,2.336,2.336,0,0,1-2.343-2.288V498.166a2.309,2.309,0,0,1,2.343-2.288h60.789a2.308,2.308,0,0,1,2.343,2.288v15.381a2.336,2.336,0,0,1-2.343,2.288Zm0,0" transform="translate(1161.522 -459.953)"/>
      <path id="路径_37005" data-name="路径 37005" d="M-832.424,362.156c-1.677,0-2.977-1.055-2.977-2.323V328.558c0-1.31,1.352-2.325,2.977-2.325,1.677,0,2.977,1.057,2.977,2.326v31.274c0,1.268-1.352,2.325-2.977,2.325Zm0,0" transform="translate(875.072 -306.275)"/>
    </g>
  </g>
</svg>
