<svg xmlns="http://www.w3.org/2000/svg" width="87.699" height="76.616" viewBox="0 0 87.699 76.616">
  <g id="组_16007" data-name="组 16007" transform="translate(-5782.223 -2663.603)">
    <path id="路径_36958" data-name="路径 36958" d="M1237.378,312.058a4.108,4.108,0,1,0,4.107-3.986A4.109,4.109,0,0,0,1237.378,312.058Zm-12.761,0a4.108,4.108,0,1,0,4.105-3.986A4.109,4.109,0,0,0,1224.617,312.058Zm-12.763,0a4.111,4.111,0,1,0,2.061-3.553,4.1,4.1,0,0,0-2.061,3.553Zm75.612,8.832h-87.7v5.473h87.7Z" transform="translate(4582.457 2366.911)" fill="#c71628"/>
    <path id="路径_36959" data-name="路径 36959" d="M1226.467,337.768a2.906,2.906,0,0,0-3.6-1.559l-11.769,4.8a2.928,2.928,0,0,0-1.721,2.5,2.735,2.735,0,0,0,1.611,2.473l11.572,5.306a2.909,2.909,0,0,0,1.1.311,2.788,2.788,0,0,0,2.5-1.558,2.733,2.733,0,0,0-1.4-3.593l-5.792-2.656,5.792-2.342c1.562-.75,2.345-2.317,1.715-3.677Zm18.3-7.7a2.744,2.744,0,0,0-3.443,1.717l-5.937,18.121a2.735,2.735,0,0,0,1.719,3.44,1.647,1.647,0,0,0,.782.153,3.05,3.05,0,0,0,2.66-1.878l5.946-18.113A2.738,2.738,0,0,0,1244.763,330.069Zm26.621,10.94-11.756-4.848a2.77,2.77,0,1,0-2.038,5.151l5.792,2.349-5.792,2.652a2.732,2.732,0,0,0-1.408,3.593,2.784,2.784,0,0,0,2.5,1.541,1.484,1.484,0,0,0,1.1-.308l11.6-5.29a2.782,2.782,0,0,0,1.562-2.5A2.475,2.475,0,0,0,1271.385,341.009Z" transform="translate(4584.837 2372.352)"/>
    <path id="路径_36960" data-name="路径 36960" d="M1276.5,298.927h-65.773a10.953,10.953,0,0,0-10.965,10.946V364.6a10.953,10.953,0,0,0,10.965,10.946H1276.5a10.955,10.955,0,0,0,10.961-10.946V309.873a10.953,10.953,0,0,0-10.961-10.946Zm0,5.473a5.476,5.476,0,0,1,5.479,5.473V364.6a5.476,5.476,0,0,1-5.479,5.473h-65.773a5.476,5.476,0,0,1-5.481-5.473V309.873a5.476,5.476,0,0,1,5.481-5.473H1276.5" transform="translate(4582.457 2364.676)"/>
  </g>
</svg>
