<svg xmlns="http://www.w3.org/2000/svg" width="99" height="99" viewBox="0 0 99 99">
  <g id="组_16373" data-name="组 16373" transform="translate(-215 -5363)">
    <g id="椭圆_2192" data-name="椭圆 2192" transform="translate(215 5363)" fill="none" stroke="#fff" stroke-width="2">
      <circle cx="49.5" cy="49.5" r="49.5" stroke="none"/>
      <circle cx="49.5" cy="49.5" r="48.5" fill="none"/>
    </g>
    <path id="路径_37475" data-name="路径 37475" d="M327.905,186.2a5.512,5.512,0,0,1-.417-1.563c.59-6.285,1.215-12.536,1.84-18.821.1-.972.556-1.32,1.667-1.32h22.572c1.667,0,1.91.174,2.084,1.875.59,5.764,1.146,11.529,1.7,17.293.069.868.556,1.84-.417,2.535Zm14.515-8.543c1.111-.278,2.257-.417,3.334-.8a8.554,8.554,0,0,0,5.417-7.779c0-.729-.243-1.25-.972-1.285-.729-.069-1.111.382-1.146,1.111-.035.313-.069.59-.1.9a6.491,6.491,0,0,1-12.814.208,4.484,4.484,0,0,0-.174-1.389c-.208-.382-.729-.833-1.076-.8s-.764.556-.972.938c-.139.243-.035.66,0,1.007A8.852,8.852,0,0,0,342.421,177.655Zm-21.912-30.489c0-1.736-.1-3.507.035-5.244a8.676,8.676,0,0,1,6.633-7.57c.208-.069.417-.139.66-.208h2.639A9.45,9.45,0,0,1,336,137.478a8.065,8.065,0,0,1,1.806,4.966c.035,1.6-.035,3.16-.035,4.757l.035-.035h-2.049l.035.035c-.035-.451-.069-.868-.069-1.32-.035-1.389.035-2.778-.139-4.167a6.48,6.48,0,0,0-12.849.695c-.069,1.6,0,3.195,0,4.792l.035-.035C322,147.131,321.238,147.131,320.509,147.166Z" transform="translate(-68.207 5249.856)" fill="#fff"/>
    <path id="路径_37476" data-name="路径 37476" d="M182.957,325.189c2.153,0,5.869-.035,8.056,0a2.119,2.119,0,0,1,2.257,2.118c.035,4.306,0,8.612,0,13.022H172.435c-.278,2.743-.556,5.348-.833,7.952-.347,3.611-.729,6.91-1.042,10.522-.069.59-.278.8-.9.8-3.368-.035-9.272,0-12.64-.035-1.806,0-2.6-.833-2.6-2.743v-27.26c0-.729-.035-1.493,0-2.222a2.143,2.143,0,0,1,2.292-2.188c2.118-.035,6.841,0,8.994,0l-.035-.035c0,.972.035,1.945,0,2.917,0,.764.208,1.389,1.076,1.389.9,0,1.077-.625,1.111-1.389.035-.972.035-1.945.069-2.917l-.035.035h13.057l-.035-.035c0,1.042-.035,2.084-.035,3.125,0,.695.313,1.181,1.076,1.181s1.077-.486,1.077-1.181C183.026,327.238,182.991,326.2,182.957,325.189Z" transform="translate(86.604 5071.833)" fill="#fff"/>
  </g>
</svg>
