<svg xmlns="http://www.w3.org/2000/svg" width="78" height="78" viewBox="0 0 78 78">
  <g id="组_16012" data-name="组 16012" transform="translate(-1029.214 -3612.129)">
    <g id="矩形_4611" data-name="矩形 4611" transform="translate(1035.214 3618.129)" fill="none" stroke="#000" stroke-width="6" stroke-dasharray="7 7">
      <rect width="66" height="66" rx="4" stroke="none"/>
      <rect x="-3" y="-3" width="72" height="72" rx="7" fill="none"/>
    </g>
    <g id="矩形_4612" data-name="矩形 4612" transform="translate(1053.214 3635.129)" fill="#c71628" stroke="#000" stroke-width="5">
      <rect width="31" height="32" stroke="none"/>
      <rect x="2.5" y="2.5" width="26" height="27" fill="none"/>
    </g>
    <g id="组_16008" data-name="组 16008" transform="translate(1041.825 3632.521) rotate(-45)">
      <path id="路径_37281" data-name="路径 37281" d="M0,5.052,5.052,0,10.1,5.052" transform="translate(0 0)" fill="none" stroke="#000" stroke-width="4"/>
      <path id="路径_37282" data-name="路径 37282" d="M0,0V8.209" transform="translate(5.052 0.709)" fill="none" stroke="#000" stroke-width="4"/>
    </g>
    <g id="组_16009" data-name="组 16009" transform="translate(1089.248 3625.376) rotate(45)">
      <path id="路径_37281-2" data-name="路径 37281" d="M0,5.052,5.052,0,10.1,5.052" transform="translate(0 0)" fill="none" stroke="#000" stroke-width="4"/>
      <path id="路径_37282-2" data-name="路径 37282" d="M0,0V8.209" transform="translate(5.052 0.709)" fill="none" stroke="#000" stroke-width="4"/>
    </g>
    <g id="组_16010" data-name="组 16010" transform="translate(1096.393 3670.931) rotate(135)">
      <path id="路径_37281-3" data-name="路径 37281" d="M0,5.052,5.052,0,10.1,5.052" transform="translate(0)" fill="none" stroke="#000" stroke-width="4"/>
      <path id="路径_37282-3" data-name="路径 37282" d="M0,0V8.209" transform="translate(5.052 0.709)" fill="none" stroke="#000" stroke-width="4"/>
    </g>
    <g id="组_16011" data-name="组 16011" transform="translate(1048.035 3678.075) rotate(-135)">
      <path id="路径_37281-4" data-name="路径 37281" d="M0,5.052,5.052,0,10.1,5.052" transform="translate(0)" fill="none" stroke="#000" stroke-width="4"/>
      <path id="路径_37282-4" data-name="路径 37282" d="M0,0V8.209" transform="translate(5.052 0.709)" fill="none" stroke="#000" stroke-width="4"/>
    </g>
  </g>
</svg>
