<svg id="组_15664" data-name="组 15664" xmlns="http://www.w3.org/2000/svg" xmlns:xlink="http://www.w3.org/1999/xlink" width="104.063" height="81.25" viewBox="0 0 104.063 81.25">
  <defs>
    <clipPath id="clip-path">
      <rect id="矩形_4433" data-name="矩形 4433" width="104.063" height="81.25" fill="none"/>
    </clipPath>
  </defs>
  <g id="组_15663" data-name="组 15663" transform="translate(0 0)" clip-path="url(#clip-path)">
    <path id="路径_36996" data-name="路径 36996" d="M1557.227,330.536h27.555a9.007,9.007,0,0,1,8.613,5.277,9.192,9.192,0,0,1,.884,4.234q-.015,7.376,0,14.752l0,7.378v11.918a9.09,9.09,0,0,1-9.465,9.461q-18.392.015-36.783,0l-18.389,0a9.27,9.27,0,0,1-8.974-5.934,9.654,9.654,0,0,1-.612-3.407q0-8.557-.006-17.114c0-6.928,0-12.068.006-17.116a9.228,9.228,0,0,1,9.542-9.449Zm.029,46.65q6.9,0,13.808-.009c5.455,0,9.7,0,13.813.023a3.05,3.05,0,0,0,3.182-3.179c-.015-5.111-.021-10.409-.021-17.029q0-8.511,0-17.023a2.9,2.9,0,0,0-3.215-3.2H1529.6a2.847,2.847,0,0,0-3.155,3.109q-.015,11.39,0,22.779l0,11.391a3.044,3.044,0,0,0,.233,1.419,2.966,2.966,0,0,0,2.965,1.719c5.121-.009,9.215-.009,18.418,0l9.2,0Zm0,0" transform="translate(-1520.06 -311.235)"/>
    <path id="路径_36997" data-name="路径 36997" d="M1617.8,163.388V148.845a1.845,1.845,0,0,0-.223-1.148,1.006,1.006,0,0,0-.911-.469h-32.178c-1.354,0-1.679.325-1.679,1.694V155.8a2.223,2.223,0,0,1-2.5,2.517h-.419l-.433,0c-.35,0-.634,0-.917-.021a2.034,2.034,0,0,1-2.073-2.159q0-.909-.015-1.819c-.012-1.142-.017-1.65-.019-2.287,0-1.6.019-2.9.081-4.159a7.328,7.328,0,0,1,7.438-6.963q16.361-.047,32.732,0c4.344.017,7.455,3.367,7.455,7.907.021,4.946.031,10.1.034,16.352q0,8.175,0,16.35v32.649a7.5,7.5,0,0,1-3.11,6.488,7.369,7.369,0,0,1-4.375,1.365q-5.943.014-11.885,0l-5.94,0a2.148,2.148,0,0,1-2.35-2.321q-.023-.883,0-1.767a2.15,2.15,0,0,1,2.321-2.267q1.225-.015,2.45,0l1.212,0h13.868c1.16,0,1.427-.267,1.437-1.437q0-2.233,0-4.467c0-1.567,0-2.852.015-4.065q-9.384.013-18.769.015c-1.887,0-2.655-.761-2.655-2.654l0-.432q-.008-.461,0-.923a2.156,2.156,0,0,1,2.348-2.332h.488q9.294,0,18.589.015c-.01-10.689-.015-21.7-.015-35.991Zm-60.453,58.5h-34.428c-1.948,0-2.715-.771-2.715-2.73l0-.431V218.5c0-.283,0-.5.006-.733a2.182,2.182,0,0,1,2.3-2.229h69.159l.252-.006a3.625,3.625,0,0,1,.384.008,2.076,2.076,0,0,1,2.077,2.08,18.909,18.909,0,0,1,0,2.181,2.076,2.076,0,0,1-2.054,2.073q-.4.021-.794.017Zm0,0" transform="translate(-1520.196 -140.876)"/>
  </g>
</svg>
